<svg width="64" height="64" viewBox="0 0 64 64" fill="none" xmlns="http://www.w3.org/2000/svg">
  <rect width="64" height="64" rx="14" fill="#050712"/>
  <g transform="translate(8, 8) scale(2)">
    <path d="M12 5a3 3 0 1 0-5.997.125 4 4 0 0 0-2.526 5.77 4 4 0 0 0 .556 6.588A4 4 0 1 0 12 18Z" stroke="#38bdf8" stroke-width="1.2" stroke-linecap="round" stroke-linejoin="round" fill="none"/>
    <path d="M9 13a4.5 4.5 0 0 0 3-4" stroke="#38bdf8" stroke-width="1.2" stroke-linecap="round" stroke-linejoin="round"/>
    <path d="M6.003 5.125A3 3 0 0 0 6.401 6.5" stroke="#38bdf8" stroke-width="1.2" stroke-linecap="round" stroke-linejoin="round"/>
    <path d="M3.477 10.896a4 4 0 0 1 .585-.396" stroke="#38bdf8" stroke-width="1.2" stroke-linecap="round" stroke-linejoin="round"/>
    <path d="M6 18a4 4 0 0 1-1.967-.516" stroke="#38bdf8" stroke-width="1.2" stroke-linecap="round" stroke-linejoin="round"/>
    <path d="M12 13h4" stroke="#38bdf8" stroke-width="1.2" stroke-linecap="round" stroke-linejoin="round"/>
    <path d="M12 18h6a2 2 0 0 1 2 2v1" stroke="#38bdf8" stroke-width="1.2" stroke-linecap="round" stroke-linejoin="round"/>
    <path d="M12 8h8" stroke="#38bdf8" stroke-width="1.2" stroke-linecap="round" stroke-linejoin="round"/>
    <path d="M16 8V5a2 2 0 0 1 2-2" stroke="#38bdf8" stroke-width="1.2" stroke-linecap="round" stroke-linejoin="round"/>
    <circle cx="16" cy="13" r=".5" fill="#38bdf8"/>
    <circle cx="18" cy="3" r=".5" fill="#38bdf8"/>
    <circle cx="20" cy="21" r=".5" fill="#38bdf8"/>
    <circle cx="20" cy="8" r=".5" fill="#38bdf8"/>
  </g>
</svg>
